<?xml version="1.0" encoding="utf-8"?>
<!-- Generator: Adobe Illustrator 26.0.2, SVG Export Plug-In . SVG Version: 6.00 Build 0)  -->
<svg version="1.1" id="Livello_1" xmlns="http://www.w3.org/2000/svg" xmlns:xlink="http://www.w3.org/1999/xlink" x="0px" y="0px"
	 viewBox="0 0 619.2 593.3" style="enable-background:new 0 0 619.2 593.3;" xml:space="preserve">
<style type="text/css">
	.st0{stroke:#000000;stroke-miterlimit:10;}
	.st1{fill:none;stroke:#000000;stroke-miterlimit:10;}
	.st2{fill:none;stroke:#000000;stroke-linecap:round;stroke-miterlimit:10;}
	.st3{stroke:#000000;stroke-linecap:round;stroke-miterlimit:10;}
	.st4{stroke:#000000;stroke-width:3;stroke-miterlimit:10;}
	.st5{stroke:#000000;stroke-width:3;stroke-linecap:round;stroke-miterlimit:10;}
	.st6{fill:#FFFFFF;stroke:#FFFFFF;stroke-width:3;stroke-linecap:round;stroke-miterlimit:10;}
	.st7{fill:#FFFFFF;stroke:#FFFFFF;stroke-miterlimit:10;}
	.st8{fill:#E30613;}
	.st9{fill:#009FE3;}
	.st10{fill:none;}
	.st11{fill:#FFFFFF;stroke:#FFFFFF;stroke-width:0.25;stroke-miterlimit:10;}
	.st12{stroke:#000000;stroke-width:0.5;stroke-miterlimit:10;}
</style>
<path class="st0" d="M531.9,541.8L282-2.1L76.2,549.2h-0.1c-12.4,26.1-39,44.1-69.8,44.1h3.7h125h3.7c-14.2,0-26.2-8.9-31-21.4
	c-2.2-5.7-2-12,0.1-17.7l78.6-210.8h176.4l101.4,210.4c1,2,1.5,4.2,1.5,6.4c0,0,0,0,0,0c0,18.3-14.8,33.1-33.1,33.1h3.7h176.4
	C577.2,593.3,545.9,572.2,531.9,541.8z M193.8,328.7l73.5-205.8l88.2,205.8H193.8z"/>
</svg>
