<?xml version="1.0" encoding="utf-8"?>
<!-- Generator: Adobe Illustrator 26.0.2, SVG Export Plug-In . SVG Version: 6.00 Build 0)  -->
<svg version="1.1" id="Livello_1" xmlns="http://www.w3.org/2000/svg" xmlns:xlink="http://www.w3.org/1999/xlink" x="0px" y="0px"
	 viewBox="0 0 619.2 593.3" style="enable-background:new 0 0 619.2 593.3;" xml:space="preserve">
<style type="text/css">
	.st0{stroke:#000000;stroke-miterlimit:10;}
	.st1{fill:none;stroke:#000000;stroke-miterlimit:10;}
	.st2{fill:none;stroke:#000000;stroke-linecap:round;stroke-miterlimit:10;}
	.st3{stroke:#000000;stroke-linecap:round;stroke-miterlimit:10;}
	.st4{stroke:#000000;stroke-width:3;stroke-miterlimit:10;}
	.st5{stroke:#000000;stroke-width:3;stroke-linecap:round;stroke-miterlimit:10;}
	.st6{fill:#FFFFFF;stroke:#FFFFFF;stroke-width:3;stroke-linecap:round;stroke-miterlimit:10;}
	.st7{fill:#FFFFFF;stroke:#FFFFFF;stroke-miterlimit:10;}
	.st8{fill:#E30613;}
	.st9{fill:#009FE3;}
	.st10{fill:none;}
	.st11{fill:#FFFFFF;stroke:#FFFFFF;stroke-width:0.25;stroke-miterlimit:10;}
	.st12{stroke:#000000;stroke-width:0.5;stroke-miterlimit:10;}
</style>
<path class="st0" d="M598.5,517.3L356.1,32.5C349.2,13.5,331,0,309.6,0c-20,0-37.3,11.9-45,29l0,0L18,522.1l0,0
	c-3.2,6.6-5,14-5,21.8c0,27.3,22.1,49.4,49.4,49.4c19.5,0,36.3-11.3,44.4-27.7l0,0L167.1,445h284.7l60.3,120.6l0.2-0.1
	c8,16.5,24.9,27.8,44.5,27.8c27.3,0,49.4-22.1,49.4-49.4C606.2,534.1,603.4,525,598.5,517.3z M217.3,344.6l92.2-184.4l92.2,184.4
	H217.3z"/>
</svg>
